# xmcd
#
# Track frame offsets: 
#        180
#        12831
#        24551
#        35255
#        46983
#        59039
#        72411
#        83448
#        97461
#        110701
#        123782
#        136549
#        149187
#        161093
#        175363
#        189197
#        201820
#        213416
#
# Disc length: 3002 seconds
#
# Revision: 0
# Processed by: cddbd v1.5.1PL0 Copyright (c) Steve Scherf et al.
# Submitted via: ExactAudioCopy v0.95a5
#
DISCID=060bb812
DTITLE=Sister Rosetta Tharpe - Gospel 1938-1943
DYEAR=1900
DGENRE=Blues
TTITLE0=Just A Closer Walk With Thee
TTITLE1=The Lonesome Road
TTITLE2=Sit Down
TTITLE3=Rock Me
TTITLE4=This Train
TTITLE5=Stand By Me
TTITLE6=There Is Something Within Me
TTITLE7=Nobody's Fault But Mine
TTITLE8=Rock Daniel
TTITLE9=Ilooked Down The Line (And I Wondered)
TTITLE10=God Don't Like It
TTITLE11=Saviour Don't Pass Me By
TTITLE12=All Over This World
TTITLE13=Beams Of Heaven
TTITLE14=Precious Lord, Hold My Hand
TTITLE15=The Devil Has Trown Him Down
TTITLE16=Pure Religion
TTITLE17=That's All
EXTD=
EXTT0=
EXTT1=
EXTT2=
EXTT3=
EXTT4=
EXTT5=
EXTT6=
EXTT7=
EXTT8=
EXTT9=
EXTT10=
EXTT11=
EXTT12=
EXTT13=
EXTT14=
EXTT15=
EXTT16=
EXTT17=
PLAYORDER=
